<svg width="42" height="42" viewBox="0 0 42 42" fill="none" xmlns="http://www.w3.org/2000/svg">
<g clip-path="url(#clip0_187_69)">
<path d="M17.64 0C17.4172 0 17.2035 0.0884998 17.046 0.24603C16.8885 0.403561 16.8 0.617218 16.8 0.84V2.52C16.8 2.74278 16.8885 2.95644 17.046 3.11397C17.2035 3.2715 17.4172 3.36 17.64 3.36H18.9V5.5839C9.81286 6.6297 2.72998 14.3678 2.72998 23.73C2.72998 33.8029 10.9271 42 21 42C31.0728 42 39.27 33.8029 39.27 23.73C39.2729 20.2823 38.2939 16.9052 36.4476 13.9936L38.2275 12.5525L39.0205 13.532C39.0899 13.6178 39.1755 13.689 39.2724 13.7417C39.3693 13.7944 39.4757 13.8275 39.5854 13.8391C39.6951 13.8506 39.806 13.8405 39.9118 13.8092C40.0176 13.7779 40.1162 13.7261 40.202 13.6567L41.5082 12.5992C41.6811 12.4589 41.7912 12.2557 41.8144 12.0342C41.8375 11.8127 41.7718 11.5911 41.6316 11.4181L37.4031 6.195C37.3337 6.10923 37.2481 6.03796 37.1512 5.98527C37.0543 5.93258 36.9479 5.8995 36.8382 5.88792C36.7285 5.87633 36.6176 5.88647 36.5118 5.91776C36.406 5.94905 36.3074 6.00087 36.2216 6.07026L34.9154 7.12782C34.7425 7.26811 34.6324 7.47132 34.6092 7.69278C34.5861 7.91424 34.6518 8.13584 34.7919 8.30886L35.5853 9.2883L33.8129 10.7222C30.9834 7.93422 27.2508 6.0627 23.1 5.58474V3.36H24.36C24.5828 3.36 24.7964 3.2715 24.954 3.11397C25.1115 2.95644 25.2 2.74278 25.2 2.52V0.84C25.2 0.617218 25.1115 0.403561 24.954 0.24603C24.7964 0.0884998 24.5828 0 24.36 0L17.64 0ZM21 8.4C29.484 8.4 36.33 15.246 36.33 23.73C36.33 32.214 29.484 39.06 21 39.06C12.516 39.06 5.66998 32.214 5.66998 23.73C5.66998 15.246 12.516 8.4 21 8.4ZM21.0008 11.5261L21 23.73L30.7583 31.0577C32.1194 29.245 32.9488 27.089 33.1534 24.8314C33.358 22.5738 32.9297 20.3038 31.9166 18.2759C30.9035 16.2481 29.3456 14.5425 27.4176 13.3504C25.4896 12.1582 23.2676 11.5263 21.0008 11.5261Z" fill="black"/>
</g>
<defs>
<clipPath id="clip0_187_69">
<rect width="42" height="42" fill="white"/>
</clipPath>
</defs>
</svg>
