<svg width="39" height="39" viewBox="0 0 39 39" fill="none" xmlns="http://www.w3.org/2000/svg">
<path d="M34.1168 11.2125C34.0898 10.9394 33.994 10.6776 33.8382 10.4517C33.6825 10.2258 33.472 10.043 33.2263 9.92063L20.2263 3.42063C20.0006 3.30766 19.7516 3.24884 19.4992 3.24884C19.2467 3.24884 18.9977 3.30766 18.772 3.42063L5.77197 9.92063C5.52704 10.0437 5.31715 10.2267 5.16177 10.4525C5.00638 10.6783 4.91053 10.9398 4.88309 11.2125C4.86522 11.3864 3.32147 28.7089 18.8402 35.6103C19.0476 35.7038 19.2725 35.7522 19.5 35.7522C19.7275 35.7522 19.9524 35.7038 20.1597 35.6103C35.6785 28.7089 34.1347 11.388 34.1168 11.2125ZM19.5 32.3326C8.50034 27.0156 7.98034 15.6683 8.06972 12.4069L19.5 6.69175L30.9221 12.4036C30.9822 15.6358 30.3891 27.0579 19.5 32.3326Z" fill="black"/>
<path d="M17.8749 20.4522L14.1488 16.7261L11.8511 19.0239L17.8749 25.0477L27.1488 15.7739L24.8511 13.4761L17.8749 20.4522Z" fill="black"/>
</svg>
