<svg width="43" height="43" viewBox="0 0 43 43" fill="none" xmlns="http://www.w3.org/2000/svg">
<path d="M24.6355 3.58333H18.3647C17.3731 3.58336 16.4163 3.94884 15.6772 4.6099C14.9382 5.27096 14.4687 6.18123 14.3585 7.16666H11.198C10.1288 7.16666 9.10348 7.59138 8.34747 8.34739C7.59147 9.10339 7.16675 10.1288 7.16675 11.1979V35.3854C7.16675 36.4546 7.59147 37.4799 8.34747 38.2359C9.10348 38.9919 10.1288 39.4167 11.198 39.4167H31.8022C32.3316 39.4167 32.8558 39.3124 33.3449 39.1098C33.834 38.9072 34.2784 38.6103 34.6527 38.2359C35.027 37.8616 35.324 37.4172 35.5266 36.9281C35.7291 36.439 35.8334 35.9148 35.8334 35.3854V11.1979C35.8334 10.6685 35.7291 10.1443 35.5266 9.65522C35.324 9.16613 35.027 8.72172 34.6527 8.34739C34.2784 7.97305 33.834 7.67611 33.3449 7.47352C32.8558 7.27093 32.3316 7.16666 31.8022 7.16666H28.6417C28.5315 6.18123 28.062 5.27096 27.3229 4.6099C26.5839 3.94884 25.6271 3.58336 24.6355 3.58333ZM18.3647 6.27083H24.6355C24.9919 6.27083 25.3337 6.4124 25.5857 6.6644C25.8377 6.91641 25.9792 7.25819 25.9792 7.61458C25.9792 7.97096 25.8377 8.31275 25.5857 8.56475C25.3337 8.81676 24.9919 8.95833 24.6355 8.95833H18.3647C18.0083 8.95833 17.6665 8.81676 17.4145 8.56475C17.1625 8.31275 17.0209 7.97096 17.0209 7.61458C17.0209 7.25819 17.1625 6.91641 17.4145 6.6644C17.6665 6.4124 18.0083 6.27083 18.3647 6.27083ZM22.3959 18.3646C22.3959 18.0082 22.5375 17.6664 22.7895 17.4144C23.0415 17.1624 23.3833 17.0208 23.7397 17.0208H30.0105C30.3669 17.0208 30.7087 17.1624 30.9607 17.4144C31.2127 17.6664 31.3542 18.0082 31.3542 18.3646C31.3542 18.721 31.2127 19.0628 30.9607 19.3148C30.7087 19.5668 30.3669 19.7083 30.0105 19.7083H23.7397C23.3833 19.7083 23.0415 19.5668 22.7895 19.3148C22.5375 19.0628 22.3959 18.721 22.3959 18.3646ZM23.7397 26.875H30.0105C30.3669 26.875 30.7087 27.0166 30.9607 27.2686C31.2127 27.5206 31.3542 27.8624 31.3542 28.2187C31.3542 28.5751 31.2127 28.9169 30.9607 29.1689C30.7087 29.4209 30.3669 29.5625 30.0105 29.5625H23.7397C23.3833 29.5625 23.0415 29.4209 22.7895 29.1689C22.5375 28.9169 22.3959 28.5751 22.3959 28.2187C22.3959 27.8624 22.5375 27.5206 22.7895 27.2686C23.0415 27.0166 23.3833 26.875 23.7397 26.875ZM19.3142 17.5225L15.7309 21.1058C15.479 21.3575 15.1374 21.4988 14.7813 21.4988C14.4252 21.4988 14.0837 21.3575 13.8317 21.1058L12.0401 19.3142C11.9081 19.1911 11.8022 19.0428 11.7287 18.878C11.6553 18.7131 11.6158 18.5352 11.6126 18.3548C11.6094 18.1743 11.6426 17.9951 11.7102 17.8278C11.7778 17.6605 11.8784 17.5085 12.006 17.3809C12.1336 17.2533 12.2856 17.1527 12.4529 17.0851C12.6202 17.0175 12.7994 16.9843 12.9799 16.9875C13.1603 16.9907 13.3382 17.0302 13.503 17.1036C13.6679 17.1771 13.8162 17.283 13.9392 17.415L14.7813 18.2571L17.4151 15.6233C17.5381 15.4913 17.6865 15.3854 17.8513 15.312C18.0161 15.2385 18.1941 15.199 18.3745 15.1959C18.5549 15.1927 18.7341 15.2259 18.9014 15.2934C19.0688 15.361 19.2208 15.4616 19.3484 15.5892C19.476 15.7168 19.5766 15.8688 19.6441 16.0361C19.7117 16.2035 19.7449 16.3827 19.7417 16.5631C19.7385 16.7435 19.699 16.9215 19.6256 17.0863C19.5522 17.2511 19.4463 17.3995 19.3142 17.5225ZM19.3142 25.4775C19.5659 25.7295 19.7072 26.071 19.7072 26.4271C19.7072 26.7832 19.5659 27.1247 19.3142 27.3767L15.7309 30.96C15.479 31.2116 15.1374 31.353 14.7813 31.353C14.4252 31.353 14.0837 31.2116 13.8317 30.96L12.0401 29.1683C11.9081 29.0453 11.8022 28.897 11.7287 28.7321C11.6553 28.5673 11.6158 28.3894 11.6126 28.2089C11.6094 28.0285 11.6426 27.8493 11.7102 27.682C11.7778 27.5146 11.8784 27.3627 12.006 27.2351C12.1336 27.1075 12.2856 27.0069 12.4529 26.9393C12.6202 26.8717 12.7994 26.8385 12.9799 26.8417C13.1603 26.8449 13.3382 26.8844 13.503 26.9578C13.6679 27.0312 13.8162 27.1371 13.9392 27.2692L14.7813 28.1112L17.4151 25.4775C17.667 25.2259 18.0086 25.0845 18.3647 25.0845C18.7208 25.0845 19.0623 25.2259 19.3142 25.4775Z" fill="black"/>
</svg>
